<?xml version="1.0" standalone="no"?>
<!DOCTYPE svg PUBLIC "-//W3C//DTD SVG 1.1//EN" "http://www.w3.org/Graphics/SVG/1.1/DTD/svg11.dtd" >
<svg xmlns="http://www.w3.org/2000/svg">
<metadata>
This is a custom SVG webfont generated by Font Squirrel.
Copyright   : Copyright C 20002005 House IndustriesBrand Design Co Inc All rights reserved
Designer    : House Industries
Foundry     : House Industries
Foundry URL : httpwwwhouseindcom
</metadata>
<defs>
<font id="webfontTQpwVp2F" horiz-adv-x="1525" >
<font-face units-per-em="2048" ascent="1638" descent="-410" />
<missing-glyph horiz-adv-x="630" />
<glyph unicode=" "  horiz-adv-x="630" />
<glyph unicode="&#x09;" horiz-adv-x="630" />
<glyph unicode="&#xa0;" horiz-adv-x="630" />
<glyph unicode="!" horiz-adv-x="587" d="M430 1421v-997h-270v997h270zM430 268v-268h-270v268h270z" />
<glyph unicode="&#x22;" horiz-adv-x="763" d="M434 1421h262l-45 -587h-174zM68 1421h264l-47 -587h-172z" />
<glyph unicode="#" horiz-adv-x="1101" d="M881 885l-52 -353h175l-29 -196h-176l-37 -260h-203l39 260h-203l-37 -260h-202l39 260h-177l29 196h174l51 353h-174l29 194h176l37 267h203l-37 -267h201l36 267h205l-39 -267h174l-28 -194h-174zM678 885h-201l-51 -353h199z" />
<glyph unicode="$" horiz-adv-x="1009" d="M563 94v-119h-133v121q-162 20 -267.5 128t-105.5 284h234q0 -147 139 -189v312q-354 80 -354 338q0 147 95 244.5t259 113.5v119h133v-119q162 -20 256 -124.5t94 -264.5h-235q0 129 -115 164v-275q86 -20 145.5 -42.5t117 -62.5t87 -102.5t29.5 -148.5 q0 -158 -100.5 -258.5t-278.5 -118.5zM430 860v244q-119 -27 -119 -129q0 -39 28 -65.5t91 -49.5zM709 455q0 55 -29 87.5t-117 59.5v-287q146 27 146 140z" />
<glyph unicode="%" horiz-adv-x="1669" d="M419.5 1421q151.5 0 255 -104.5t103.5 -254t-103.5 -252.5t-255 -103t-255 104t-103.5 252q0 150 103.5 254t255 104zM334 0l780 1421h219l-780 -1421h-219zM1247.5 0q-151.5 0 -255 104.5t-103.5 254t103.5 254t255 104.5t255 -104.5t103.5 -254t-103.5 -254 t-255 -104.5zM419.5 899q63.5 0 109.5 48t46 115.5t-46 116t-109.5 48.5t-108.5 -48.5t-45 -116t45 -115.5t108.5 -48zM1247.5 522q-63.5 0 -109.5 -48t-46 -115.5t46 -115.5t109.5 -48t109.5 48t46 115.5t-46 115.5t-109.5 48z" />
<glyph unicode="&#x26;" horiz-adv-x="1351" d="M1012 0l-62 76q-147 -100 -366 -101q-217 0 -366.5 129t-149.5 322q0 250 276 412l-12 14q-98 123 -99 262q0 147 100.5 245.5t254.5 98.5q150 0 247 -97t97 -245q0 -199 -232 -334l256 -319q31 98 25 254h242q12 -279 -99 -465l201 -252h-313zM481 1122q0 -68 64 -145 l14 -16q129 76 129 172q0 45 -28.5 72.5t-73.5 27.5t-75 -31t-30 -80zM797 268l-312 391q-164 -96 -163 -233q0 -88 75.5 -149.5t186.5 -61.5q125 0 213 53z" />
<glyph unicode="'" horiz-adv-x="399" d="M68 1421h262l-45 -587h-174z" />
<glyph unicode="(" horiz-adv-x="665" d="M434 1618h215q-311 -408 -311 -928t311 -928h-215q-158 162 -255 414t-97 514t97 514t255 414z" />
<glyph unicode=")" horiz-adv-x="665" d="M231 1618q158 -162 255.5 -414t97.5 -514t-97.5 -514t-255.5 -414h-213q309 406 309.5 928t-309.5 928h213z" />
<glyph unicode="*" horiz-adv-x="800" d="M745 1038l-217 4l113 -184l-137 -80l-105 191l-104 -191l-135 80l110 184l-215 -4v158l215 -6l-112 188l137 78l104 -192l105 192l137 -78l-113 -188l217 6v-158z" />
<glyph unicode="+" horiz-adv-x="1073" d="M997 440h-325v-336h-271v336h-325v252h325v334h271v-334h325v-252z" />
<glyph unicode="," horiz-adv-x="479" d="M385 289v-324q0 -133 -71.5 -211t-192.5 -90v127q127 29 127 172v37h-154v289h291z" />
<glyph unicode="-" horiz-adv-x="677" d="M61 442v252h555v-252h-555z" />
<glyph unicode="." horiz-adv-x="479" d="M385 289v-289h-291v289h291z" />
<glyph unicode="/" horiz-adv-x="690" d="M4 0l432 1524h281l-432 -1524h-281z" />
<glyph unicode="0" horiz-adv-x="1198" d="M600 1423q100 0 190.5 -40t167 -120.5t122.5 -226t46 -338t-46 -338t-122.5 -226.5t-167 -121t-190.5 -40t-191.5 40t-168 121t-122.5 226.5t-46 338t46 338t122.5 226t168 120.5t191.5 40zM600 223q82 0 137.5 52.5t79 135.5t32.5 150.5t9 137t-9 137t-32.5 151.5 t-79 136.5t-137.5 52.5t-138 -52.5t-80 -136.5t-33 -151.5t-9 -137t9 -137t33 -150.5t80 -135.5t138 -52.5z" />
<glyph unicode="1" horiz-adv-x="860" d="M582 1421v-1421h-271v991h-221v176q104 2 184 66.5t91 187.5h217z" />
<glyph unicode="2" horiz-adv-x="1153" d="M369 252h684v-252h-985v121q0 115 33.5 209t100 163.5t133 117.5t161.5 100q182 98 236 158.5t54 131.5q0 76 -50 126.5t-152 50.5q-104 0 -165 -72t-61 -182h-272q0 209 131 356t365 147q229 0 352 -128t123 -300q0 -96 -29 -169.5t-97.5 -136t-127 -99.5t-172.5 -100 q-252 -138 -262 -242z" />
<glyph unicode="3" horiz-adv-x="1142" d="M1077 424q0 -180 -137 -314.5t-377 -134.5q-244 0 -377 134.5t-137 345.5h270q2 -109 66 -169.5t176.5 -60.5t179 56.5t66.5 146.5q0 180 -232 180h-90v236h56q225 0 225 164q0 78 -51 124t-144 46q-102 0 -156.5 -61.5t-54.5 -147.5h-270q0 195 130 326.5t351 131.5 q223 0 341 -115.5t118 -275.5q0 -94 -46 -169.5t-134 -118.5q117 -35 172 -124t55 -200z" />
<glyph unicode="4" horiz-adv-x="1134" d="M1073 289h-151v-289h-252v289h-621v239l557 893h316v-893h151v-239zM670 528v564l-353 -564h353z" />
<glyph unicode="5" horiz-adv-x="1126" d="M1061 457q0 -207 -144.5 -344.5t-361.5 -137.5q-213 0 -350 118t-150 302h273q14 -78 75.5 -121t151.5 -43q96 0 166 59.5t70 174.5q0 106 -62.5 174t-163.5 68q-141 0 -221 -123l-244 65l84 772h789v-252h-580l-35 -297q106 68 226 68q205 0 341 -137t136 -346z" />
<glyph unicode="6" horiz-adv-x="1153" d="M1098 457q0 -209 -140.5 -345.5t-357.5 -136.5q-100 0 -191.5 36t-168 111t-122.5 209t-46 310q0 375 144 587t398 212q186 0 310.5 -108.5t152.5 -295.5h-272q-14 66 -62.5 110t-128.5 44q-115 0 -183.5 -96.5t-84.5 -255.5q113 90 268 90q209 0 346.5 -132t137.5 -339z M829 451q0 100 -64.5 168.5t-164.5 68.5t-164.5 -68.5t-64.5 -168.5q0 -98 64.5 -167t164.5 -69t164.5 69t64.5 167z" />
<glyph unicode="7" horiz-adv-x="1056" d="M1022 1421v-237q-242 -197 -370 -501t-128 -683h-270q0 369 110.5 675t321.5 494h-651v252h987z" />
<glyph unicode="8" horiz-adv-x="1140" d="M1077 410q0 -186 -145.5 -310.5t-362.5 -124.5q-215 0 -360.5 124t-145.5 311q0 111 55.5 204t151.5 150q-147 115 -147 293q0 164 127 273.5t319.5 109.5t320.5 -109.5t128 -273.5q0 -180 -148 -291q98 -57 152.5 -149t54.5 -207zM379 1040q0 -78 57.5 -124t132.5 -46 q78 0 135.5 46.5t57.5 123.5q0 80 -57.5 123t-135.5 43q-76 0 -133 -43t-57 -123zM815 421.5q0 102.5 -71.5 156t-174.5 53.5q-100 0 -171.5 -53.5t-71.5 -156t72.5 -156.5t171 -54t172 54t73.5 156.5z" />
<glyph unicode="9" horiz-adv-x="1148" d="M547 -25q-176 0 -299 95.5t-160 253.5h291q37 -100 170 -101q248 0 264 367q-43 -51 -120 -83t-161 -32q-201 0 -339 134t-138 343q0 213 140.5 350.5t357.5 137.5q221 0 370.5 -162t153.5 -504q4 -387 -128 -593t-402 -206zM782 952.5q0 104.5 -64.5 177t-164.5 72.5 t-164.5 -72.5t-64.5 -177t64.5 -175t164.5 -70.5t164.5 70.5t64.5 175z" />
<glyph unicode=":" horiz-adv-x="501" d="M397 1018v-289h-291v289h291zM397 289v-289h-291v289h291z" />
<glyph unicode=";" horiz-adv-x="501" d="M397 1018v-289h-291v289h291zM258 0h-152v289h291v-324q0 -133 -71.5 -211t-192.5 -90v127q125 27 125 172v37z" />
<glyph unicode="&#x37e;" horiz-adv-x="501" d="M397 1018v-289h-291v289h291zM258 0h-152v289h291v-324q0 -133 -71.5 -211t-192.5 -90v127q125 27 125 172v37z" />
<glyph unicode="&#x3c;" horiz-adv-x="919" d="M856 786l-526 -221l526 -223v-276l-793 364v268l793 367v-279z" />
<glyph unicode="=" horiz-adv-x="1034" d="M958 922v-252h-882v252h882zM958 461v-250h-882v250h882z" />
<glyph unicode="&#x3e;" horiz-adv-x="921" d="M858 698v-268l-795 -364v276l527 223l-527 221v279z" />
<glyph unicode="?" horiz-adv-x="1130" d="M336 991h-268q0 207 133 335t358 128q221 0 349 -115.5t128 -300.5q0 -117 -61.5 -198.5t-177.5 -159.5q-72 -47 -101.5 -95t-29.5 -114v-47h-248v47q0 76 18.5 137.5t55 108.5t67.5 73.5t82 63.5q70 49 98.5 90t28.5 94q0 76 -56.5 122t-152.5 46q-106 0 -164.5 -60.5 t-58.5 -154.5zM676 268v-268h-270v268h270z" />
<glyph unicode="@" d="M1217 313h243q-215 -340 -645 -340q-317 0 -534.5 211t-217.5 529q0 313 212 527t518 214q174 0 322.5 -64.5t247.5 -208t99 -339.5q0 -203 -115.5 -346.5t-281.5 -143.5q-141 0 -207 111q-90 -115 -211 -115q-131 0 -194.5 116t-14.5 286q39 137 142.5 231t212.5 94 q104 0 149 -86l16 53h185l-123 -397q-16 -51 1 -78.5t52 -27.5q76 0 131.5 90t55.5 207q0 109 -41 194.5t-109 137t-148.5 77t-168.5 25.5q-217 0 -372 -163t-155 -394q0 -238 157 -395.5t392 -157.5q252 -1 402 153zM851.5 714.5q22.5 71.5 7.5 122t-62 50.5 q-45 0 -93.5 -49.5t-72.5 -122.5q-23 -72 -6.5 -122t61.5 -50t94 50t71.5 121.5z" />
<glyph unicode="A" horiz-adv-x="1366" d="M963 285h-568l-96 -285h-287l496 1421h342l496 -1421h-287zM877 537l-199 583l-199 -583h398z" />
<glyph unicode="B" horiz-adv-x="1333" d="M1270 418q0 -190 -121 -304t-326 -114h-692v1421h655q209 0 318.5 -101t109.5 -284q0 -178 -139 -278q195 -102 195 -340zM786 1176h-385v-314h385q70 0 118 44t48 114q0 72 -45 114t-121 42zM993 428q0 90 -55 138t-158 48h-379v-366h385q90 0 148.5 42t58.5 138z" />
<glyph unicode="C" horiz-adv-x="1449" d="M1401 451q-68 -219 -240 -347.5t-405 -128.5q-291 0 -489.5 215.5t-198.5 526.5t198.5 526t489.5 215q240 0 409.5 -127t237.5 -346h-293q-49 100 -142.5 162.5t-211.5 62.5q-174 0 -296 -145t-122 -348q0 -205 122 -350.5t296 -145.5q117 0 211 63.5t143 166.5h291z" />
<glyph unicode="D" horiz-adv-x="1366" d="M1298 711q0 -326 -174 -518.5t-467 -192.5h-526v1421h526q297 0 469 -191t172 -519zM1028 713q0 88 -16.5 161.5t-54 143t-114.5 110.5t-186 41h-256v-917h256q113 0 192 46t114.5 122t50 145.5t14.5 147.5z" />
<glyph unicode="E" horiz-adv-x="1245" d="M1184 252v-252h-1053v1421h1038v-252h-768v-303h656v-252h-656v-362h783z" />
<glyph unicode="F" horiz-adv-x="1200" d="M401 1169v-338h641v-251h-641v-580h-270v1421h1016v-252h-746z" />
<glyph unicode="G" horiz-adv-x="1531" d="M1430 791v-791h-250v154q-150 -178 -422 -179q-291 0 -490.5 214t-199.5 525.5t199.5 526.5t490.5 215q236 0 407.5 -126t237.5 -347h-291q-43 98 -139 162.5t-215 64.5q-176 0 -298 -145t-122 -350q0 -203 126 -348.5t306 -145.5q147 0 260 90t152 228h-385v252h633z " />
<glyph unicode="H" horiz-adv-x="1413" d="M1280 1421v-1421h-270v600h-607v-600h-272v1421h272v-569h607v569h270z" />
<glyph unicode="I" horiz-adv-x="542" d="M408 1421v-1421h-271v1421h271z" />
<glyph unicode="J" horiz-adv-x="1081" d="M498 -27q-209 0 -336 132.5t-127 332.5v99h270v-107q0 -80 49 -136t143.5 -56t144.5 56t50 136v991h271v-983q0 -201 -128 -333t-337 -132z" />
<glyph unicode="K" horiz-adv-x="1327" d="M543 631l-140 -146v-485h-272v1421h272v-573l535 573h373l-578 -594l602 -827h-352z" />
<glyph unicode="L" horiz-adv-x="1144" d="M403 1421v-1169h707v-252h-979v1421h272z" />
<glyph unicode="M" horiz-adv-x="1660" d="M1530 1421v-1421h-266v1042l-289 -1042h-289l-289 1042v-1042h-266v1421h401l297 -1065l297 1065h404z" />
<glyph unicode="N" horiz-adv-x="1437" d="M1307 1421v-1421h-326l-580 1012v-1012h-270v1421h326l577 -1011v1011h273z" />
<glyph unicode="O" d="M764 1456q299 0 496.5 -214t197.5 -525q0 -313 -197.5 -527.5t-496.5 -214.5t-497.5 214t-198.5 528q0 311 198.5 525t497.5 214zM764 231q174 0 298 142.5t124 343.5q0 199 -124 341t-298 142q-176 0 -300 -142.5t-124 -340.5q0 -201 124 -343.5t300 -142.5z" />
<glyph unicode="P" horiz-adv-x="1249" d="M1198 963q0 -201 -127 -328t-336 -127h-334v-508h-270v1421h598q221 0 345 -123.5t124 -334.5zM727 1169h-326v-413h326q201 0 201 206.5t-201 206.5z" />
<glyph unicode="Q" d="M1153 -25l-72 76q-145 -76 -317 -76q-299 0 -497.5 214t-198.5 528q0 311 198.5 525t497.5 214t495.5 -214t196.5 -525q0 -315 -196 -529l200 -213h-307zM891 254l-211 223h307l84 -90q115 137 115 330q0 199 -124 341t-298 142q-176 0 -301 -142.5t-125 -340.5 q0 -201 125 -343.5t301 -142.5q64 0 127 23z" />
<glyph unicode="R" horiz-adv-x="1370" d="M1225 371v-371h-271v373q0 90 -45 133t-139 43h-369v-549h-270v1421h649q225 0 356.5 -112.5t131.5 -311.5q0 -231 -199 -323q156 -86 156 -303zM401 793h385q23 0 49.5 6t67.5 22.5t67.5 58.5t26.5 103q0 23 -1 39t-13 47t-32.5 50.5t-64.5 34.5t-106 15h-379v-376z" />
<glyph unicode="S" horiz-adv-x="1325" d="M657 1458q262 0 403.5 -140t141.5 -327h-270q0 94 -74 154.5t-201 60.5q-115 0 -195.5 -43t-80.5 -121q0 -70 69.5 -105.5t243.5 -72.5q141 -29 231.5 -58.5t169.5 -78.5t114.5 -124t35.5 -181q0 -205 -158.5 -326t-429.5 -121q-109 0 -209 30t-185 88.5t-136 156.5 t-51 221h270q0 -117 95.5 -182.5t215.5 -65.5q131 0 224.5 48t93.5 143q0 70 -73 114.5t-263 81.5q-117 23 -195.5 48.5t-162.5 72.5t-127 126t-43 187q0 184 149 299t397 115z" />
<glyph unicode="T" horiz-adv-x="1097" d="M1065 1169h-381v-1169h-270v1169h-381v252h1032v-252z" />
<glyph unicode="U" horiz-adv-x="1331" d="M1214 1421v-858q0 -276 -142 -432t-406.5 -156t-405.5 156t-141 432v858h270v-866q0 -317 276.5 -317t276.5 317v866h272z" />
<glyph unicode="V" horiz-adv-x="1236" d="M1229 1421l-465 -1421h-291l-467 1421h287l325 -1095l324 1095h287z" />
<glyph unicode="W" horiz-adv-x="1822" d="M1819 1421l-387 -1421h-299l-220 1071l-221 -1071h-297l-389 1421h287l244 -1034l213 1034h327l211 -1034l246 1034h285z" />
<glyph unicode="X" horiz-adv-x="1247" d="M926 0l-301 498l-299 -498h-322l459 727l-438 694h319l281 -465l280 465h322l-439 -694l457 -727h-319z" />
<glyph unicode="Y" horiz-adv-x="1218" d="M745 545v-545h-272v545l-477 876h305l307 -608l310 608h305z" />
<glyph unicode="Z" horiz-adv-x="1214" d="M1161 252v-252h-1110v242l762 927h-737v252h1067v-239l-762 -930h780z" />
<glyph unicode="[" horiz-adv-x="649" d="M373 1456v-1483h250v-221h-492v1925h492v-221h-250z" />
<glyph unicode="\" horiz-adv-x="692" d="M686 0h-280l-433 1524h283z" />
<glyph unicode="]" horiz-adv-x="690" d="M559 1677v-1925h-512v221h260v1483h-260v221h512z" />
<glyph unicode="^" horiz-adv-x="1134" d="M797 528l-230 625l-229 -625h-270l366 893h266l367 -893h-270z" />
<glyph unicode="_" horiz-adv-x="1650" d="M1655 -143v-252h-1659v252h1659z" />
<glyph unicode="`" horiz-adv-x="854" d="M127 1528h295l188 -295h-196z" />
<glyph unicode="a" horiz-adv-x="1271" d="M1145 1055v-1055h-258v113q-129 -135 -324 -136q-207 0 -354.5 159t-147.5 390q0 233 147.5 392t354.5 159q195 0 324 -135v113h258zM874 524q0 125 -78.5 214t-191 89t-191.5 -87t-79 -216q0 -125 79 -211t191.5 -86t191 87t78.5 210z" />
<glyph unicode="b" horiz-adv-x="1267" d="M1206 526q0 -231 -146.5 -390t-354.5 -159q-193 0 -322 136v-113h-260v1524h272v-570q127 123 310 123q209 0 355 -159t146 -392zM936 524q0 129 -79 216t-191.5 87t-191.5 -89t-79 -214q0 -123 79 -210t191.5 -87t191.5 86t79 211z" />
<glyph unicode="c" horiz-adv-x="1169" d="M1116 356q-45 -178 -181 -279.5t-329 -101.5q-236 0 -390.5 160t-154.5 391.5t155 393t390 161.5q190 0 326.5 -101t181.5 -280h-289q-29 57 -88 95.5t-131 38.5q-113 0 -191.5 -91.5t-78.5 -218.5q0 -125 79 -214t191 -89q74 0 134.5 39t86.5 96h289z" />
<glyph unicode="d" horiz-adv-x="1273" d="M1145 1524v-1524h-258v113q-131 -135 -324 -136q-207 0 -354.5 159t-147.5 390q0 233 147.5 392t354.5 159q182 0 311 -123v570h271zM874 524q0 125 -78.5 214t-191 89t-191.5 -87t-79 -216q0 -125 79 -211t191.5 -86t191 87t78.5 210z" />
<glyph unicode="e" horiz-adv-x="1198" d="M1133 422h-797q27 -96 97.5 -152.5t166.5 -56.5q158 0 223 123h289q-47 -164 -182 -262.5t-328 -98.5q-223 0 -382 161t-159 390.5t159 392t382 162.5q246 0 403 -179q132 -151 132 -390q0 -43 -4 -90zM340 643h524q-25 92 -96.5 146.5t-167.5 54.5q-92 0 -161.5 -54.5 t-98.5 -146.5z" />
<glyph unicode="f" horiz-adv-x="1097" d="M766 870v103q0 80 -49 136t-143.5 56t-144.5 -56t-50 -136v-277h647v-254h-647v-442h-270v958q0 201 128 332t336.5 131t335.5 -131t127 -332v-88h-270z" />
<glyph unicode="g" horiz-adv-x="1253" d="M1145 1055v-1002q0 -262 -146.5 -415.5t-400.5 -153.5q-193 0 -337 101.5t-175 267.5h297q25 -57 88.5 -87t126.5 -30q139 0 207.5 83t68.5 230v51q-129 -123 -311 -123q-207 0 -354.5 159t-147.5 390q0 233 147.5 392t354.5 159q193 0 324 -135v113h258zM874 524 q0 125 -78.5 214t-191 89t-191.5 -87t-79 -216q0 -125 79 -211t191.5 -86t191 87t78.5 210z" />
<glyph unicode="h" horiz-adv-x="1181" d="M1067 616v-616h-270v616q0 29 -7.5 59t-24.5 64.5t-60 56t-105 21.5q-90 0 -147.5 -56t-57.5 -145v-616h-272v1524h272v-525q109 82 242 82q193 0 311.5 -128t118.5 -337z" />
<glyph unicode="i" horiz-adv-x="530" d="M399 1421v-252h-270v252h270zM399 1055v-1055h-270v1055h270z" />
<glyph unicode="j" horiz-adv-x="489" d="M383 1421v-252h-272v252h272zM383 1055v-1184q0 -201 -114 -283q-84 -61 -219 -60q-47 0 -101 7v240q19 -2 35 -2q58 0 88 22q39 29 39 107v1153h272z" />
<glyph unicode="k" horiz-adv-x="1142" d="M528 444l-135 -141v-303h-270v1524h270v-852l346 383h373l-393 -412l416 -643h-344z" />
<glyph unicode="l" horiz-adv-x="526" d="M399 1524v-1524h-270v1524h270z" />
<glyph unicode="m" horiz-adv-x="1853" d="M1739 616v-616h-271v616q0 31 -7 61t-24.5 66.5t-60.5 59t-104 22.5q-90 0 -147.5 -59t-57.5 -150v-616h-272v616q0 31 -6.5 61t-25 66.5t-61.5 59t-104 22.5q-88 0 -145.5 -59t-57.5 -150v-616h-272v1055h260v-103q106 129 272 129q199 0 316 -149q123 150 321 149 q209 0 328 -127t119 -338z" />
<glyph unicode="n" horiz-adv-x="1181" d="M1065 616v-616h-270v616q0 31 -6.5 61t-25 66.5t-61.5 59t-104 22.5q-90 0 -147.5 -59t-57.5 -150v-616h-270v1055h258v-103q109 129 272 129q186 0 299 -128t113 -337z" />
<glyph unicode="o" horiz-adv-x="1185" d="M592 1081q221 0 376.5 -159.5t155.5 -395.5q0 -233 -155.5 -392t-376.5 -159t-376 158t-155 393.5t155 395t376 159.5zM591.5 223q108.5 0 184.5 85t76 216q0 135 -76 222.5t-184.5 87.5t-184 -87.5t-75.5 -222.5q0 -131 75.5 -216t184 -85z" />
<glyph unicode="p" horiz-adv-x="1267" d="M1206 530q0 -233 -146.5 -393t-354.5 -160q-180 0 -310 125v-571h-272v1524h260v-111q131 135 322 135q209 0 355 -159t146 -390zM936 530q0 127 -79 212t-191.5 85t-191.5 -87t-79 -210q0 -125 79 -213t191.5 -88t191.5 86t79 215z" />
<glyph unicode="q" horiz-adv-x="1269" d="M1145 1055v-1524h-271v571q-131 -125 -311 -125q-207 0 -354.5 160t-147.5 393q0 231 147.5 390t354.5 159q188 0 324 -135v111h258zM874 530q0 123 -78.5 210t-191 87t-191.5 -85t-79 -212q0 -129 79 -215t191.5 -86t191 88t78.5 213z" />
<glyph unicode="r" horiz-adv-x="1124" d="M1065 616v-53h-270v53q0 31 -6.5 61t-25 66.5t-61.5 59t-104 22.5q-90 0 -147.5 -59t-57.5 -150v-616h-270v1055h258v-103q109 129 272 129q186 0 299 -128t113 -337z" />
<glyph unicode="s" horiz-adv-x="1077" d="M1014 332q0 -156 -130 -256.5t-333 -100.5t-339 99.5t-161 269.5h275q25 -61 90 -92t135 -31q84 0 137 24.5t53 69.5t-43 69t-178 44q-70 10 -120 20.5t-115.5 35t-105.5 55t-69.5 84t-29.5 120.5q0 137 117.5 237.5t332.5 100.5q180 0 305.5 -90t151.5 -239h-280 q-29 88 -177 88q-86 0 -131 -26t-45 -58q0 -39 49.5 -58.5t159.5 -35.5q111 -18 182.5 -38t138 -57t98.5 -94t32 -141z" />
<glyph unicode="t" horiz-adv-x="1114" d="M1036 526v-86q0 -203 -127 -334t-335.5 -131t-336.5 131.5t-128 333.5v883h270v-268h647v-254h-647v-375q0 -80 50 -137.5t144.5 -57.5t143.5 57.5t49 137.5v100h270z" />
<glyph unicode="u" horiz-adv-x="1179" d="M1057 1055v-1055h-258v96q-104 -121 -269 -121q-186 0 -300.5 128t-114.5 335v617h270v-617q0 -29 7 -58.5t24.5 -66.5t60.5 -59.5t105 -22.5q90 0 147 59.5t57 147.5v617h271z" />
<glyph unicode="v" horiz-adv-x="1091" d="M1090 1055l-398 -1055h-291l-399 1055h283l262 -787l264 787h279z" />
<glyph unicode="w" horiz-adv-x="1605" d="M1602 1055l-330 -1055h-279l-190 698l-191 -698h-280l-328 1055h287l184 -738l193 738h270l192 -738l185 738h287z" />
<glyph unicode="x" horiz-adv-x="1050" d="M1051 0h-306l-219 358l-221 -358h-305l369 545l-346 510h307l196 -322l195 322h307l-346 -510z" />
<glyph unicode="y" horiz-adv-x="1171" d="M1057 1055v-1098q0 -213 -129 -343t-340 -130q-174 0 -303 103.5t-156 265.5h281q25 -117 178 -117q102 0 150 59.5t48 143.5v122q-102 -86 -241 -86q-193 0 -311.5 128t-118.5 335v617h270v-617q0 -29 7 -58.5t24.5 -66.5t60.5 -59.5t105 -22.5q90 0 147 58.5t57 148.5 v617h271z" />
<glyph unicode="z" horiz-adv-x="1009" d="M965 244v-244h-922v233l557 578h-534v244h880v-242l-547 -569h566z" />
<glyph unicode="{" horiz-adv-x="684" d="M639 1634v-198q-80 6 -119 -39t-39 -125v-268q0 -225 -155 -297q156 -78 155 -299v-269q0 -80 39 -125t119 -39v-200q-190 -16 -295.5 73t-105.5 281v256q0 223 -199 223v195q199 0 199 225v256q0 193 105.5 280.5t295.5 69.5z" />
<glyph unicode="|" horiz-adv-x="548" d="M410 0h-271v1524h271v-1524z" />
<glyph unicode="}" horiz-adv-x="684" d="M645 803v-195q-199 0 -199 -223v-256q0 -193 -105 -282t-294 -72v200q78 -6 117 39t39 125v269q0 221 155 299q-156 72 -155 297v268q0 80 -39 125t-117 39v198q188 18 293.5 -70.5t105.5 -279.5v-256q0 -225 199 -225z" />
<glyph unicode="~" horiz-adv-x="854" d="M559 1395q70 0 100 86h113q-12 -109 -71.5 -177.5t-145.5 -68.5q-59 0 -141 46t-121 46q-70 0 -100 -86h-111q10 109 69.5 177.5t145.5 68.5q59 0 141 -46t121 -46z" />
<glyph unicode="&#xa1;" horiz-adv-x="587" d="M160 1155v268h270v-268h-270zM160 0v999h270v-999h-270z" />
<glyph unicode="&#xa2;" horiz-adv-x="1095" d="M1036 381q-41 -178 -168 -284.5t-307 -106.5q-45 0 -100 10l-68 -225h-139l82 268q-127 66 -201 196t-74 296q0 233 141.5 388.5t358.5 155.5q31 0 88 -8l68 221h139l-80 -260q199 -98 258 -334h-248q-25 61 -79 107l-179 -584q25 -4 37 -4q78 0 137.5 44t88.5 120h245z M408 279l174 571h-17q-113 0 -185.5 -89t-72.5 -226q1 -166 101 -256z" />
<glyph unicode="&#xa3;" horiz-adv-x="1142" d="M1124 96q-197 -188 -462 -71q-111 51 -208.5 41.5t-201.5 -86.5l-148 208q98 51 160 134.5t62 171.5q0 49 -11 79h-227v179h133q-82 125 -82 256q0 188 132 307t341 119q213 0 347.5 -126t134.5 -327h-254q0 96 -60.5 156.5t-167.5 60.5q-100 0 -159.5 -53t-59.5 -137 q0 -37 10.5 -74t21.5 -58l35 -64l34 -60h299v-179h-242q4 -41 2 -65q0 -158 -131 -264l2 -2q127 59 305 -4q98 -31 155.5 -16.5t114.5 71.5z" />
<glyph unicode="&#xa5;" horiz-adv-x="1230" d="M973 952h164v-151h-246l-115 -209h330v-154h-354v-438h-273v438h-354v154h330l-115 209h-246v151h164l-256 469h305l307 -608l310 608h305z" />
<glyph unicode="&#xa7;" horiz-adv-x="1079" d="M883 487q61 -72 61 -184q0 -145 -109.5 -238.5t-304.5 -93.5q-188 0 -302.5 102.5t-114.5 262.5h235q0 -61 52.5 -105.5t134.5 -44.5q84 0 131 29t47 74q0 47 -44 71.5t-188 49.5q-203 35 -308 102.5t-105 202.5q0 158 143 246q-61 72 -61 186q4 137 113.5 226t287.5 89 q176 0 280.5 -95t102.5 -249h-238q2 61 -42 94t-105 33q-66 0 -113 -25.5t-49 -72.5q0 -43 37 -63.5t133 -39.5q225 -47 297 -81q158 -74 158 -240q0 -154 -129 -236zM547 621q18 -2 56 -10.5t56 -10.5q123 27 123 96q0 53 -60 79t-206 50q-59 10 -92 21q-121 -31 -121 -98 q0 -51 59.5 -80t184.5 -47z" />
<glyph unicode="&#xa8;" horiz-adv-x="854" d="M731 1233h-225v221h225v-221zM346 1233h-225v221h225v-221z" />
<glyph unicode="&#xa9;" horiz-adv-x="1603" d="M803 1456q305 0 522 -217t217 -522q0 -307 -217 -524.5t-522 -217.5q-307 0 -524.5 217.5t-217.5 524.5q0 305 217.5 522t524.5 217zM803 168q223 0 379.5 160.5t156.5 388t-156.5 388.5t-379.5 161t-381 -161t-158 -388.5t158 -388t381 -160.5zM1161 604 q-33 -125 -130 -203.5t-228 -78.5q-160 0 -269.5 114.5t-109.5 280.5q0 164 109.5 278.5t269.5 114.5q133 0 230 -78t130 -205h-209q-47 94 -151 95q-74 0 -126 -60.5t-52 -144.5t52 -144.5t126 -60.5q102 0 149 92h209z" />
<glyph unicode="&#xaa;" horiz-adv-x="837" d="M711 1442v-633h-156v68q-78 -82 -193 -82q-125 0 -213 95t-88 234.5t88.5 234.5t212.5 95q117 0 193 -82v70h156zM549 1124.5q0 75.5 -48 128t-116 52.5t-115 -52.5t-47 -128t47 -127t115 -51.5t116 51.5t48 127z" />
<glyph unicode="&#xab;" horiz-adv-x="866" d="M805 778l-205 -164l205 -168v-215l-324 281v203l324 278v-215zM47 715l324 278v-215l-205 -164l205 -168v-215l-324 281v203z" />
<glyph unicode="&#xad;" horiz-adv-x="677" d="M61 442v252h555v-252h-555z" />
<glyph unicode="&#xae;" horiz-adv-x="1603" d="M1542 717q0 -307 -217 -524.5t-522 -217.5q-307 0 -524.5 217.5t-217.5 524.5q0 305 217.5 522t524.5 217q305 0 522 -217t217 -522zM1339 717q0 225 -156.5 387t-379.5 162t-381 -162t-158 -387q0 -227 158 -388t381 -161t379.5 161t156.5 388zM1022 621l141 -263h-225 l-111 222h-102v-222h-201v756h361q129 0 200.5 -73.5t71.5 -196.5q0 -155 -135 -223zM725 758h147q80 0 80 86t-80 86h-147v-172z" />
<glyph unicode="&#xaf;" horiz-adv-x="825" d="M82 1219v178h661v-178h-661z" />
<glyph unicode="&#xb0;" horiz-adv-x="755" d="M377 1417q131 0 223 -92t92 -221q0 -131 -92 -223.5t-223 -92.5t-222.5 92.5t-91.5 223.5q0 129 91.5 221t222.5 92zM376.5 944q65.5 0 112 47t46.5 113q0 63 -46.5 110.5t-112 47.5t-111.5 -47.5t-46 -110.5q0 -66 46 -113t111.5 -47z" />
<glyph unicode="&#xb1;" horiz-adv-x="2701" d="M2574 1524v-1524h-270v1524h270zM1853 870v95q0 80 -50 137t-144 57t-143.5 -57.5t-49.5 -136.5v-269h645v-260h-645v-436h-270v958q0 201 127 332t336 131t337 -131t128 -332v-88h-271zM766 870v95q0 80 -50 137t-144.5 57t-143.5 -57.5t-49 -136.5v-269h645v-260h-645 v-436h-270v958q0 201 126.5 332t335.5 131t337 -131t128 -332v-88h-270z" />
<glyph unicode="&#xb2;" horiz-adv-x="749" d="M80 1112q0 129 82 221t225 92q141 0 218 -79.5t77 -186.5q0 -113 -62.5 -175t-201.5 -138q-156 -82 -164 -150h426v-155h-612v73q0 135 70.5 217t195.5 150q115 61 147.5 98t32.5 82q0 47 -31.5 78t-95 31t-101.5 -44t-38 -114h-168z" />
<glyph unicode="&#xb3;" horiz-adv-x="753" d="M688 803q0 -111 -86 -195t-233 -84q-152 0 -234 84t-86 213h170q0 -66 39 -103.5t109 -37.5q72 0 112.5 35t40.5 90q0 113 -143 113h-55v145h32q141 0 142 100q0 49 -32 78t-89 29q-63 0 -97 -38t-34 -91h-168q0 121 81 202.5t218 81.5t210.5 -72.5t73.5 -168.5 q0 -123 -112 -180q141 -43 141 -201z" />
<glyph unicode="&#xb4;" horiz-adv-x="854" d="M719 1528l-287 -295h-199l191 295h295z" />
<glyph unicode="&#xb5;" horiz-adv-x="458" d="M365 846v-268h-271v268h271z" />
<glyph unicode="&#x3bc;" horiz-adv-x="458" d="M365 846v-268h-271v268h271z" />
<glyph unicode="&#xb6;" horiz-adv-x="1251" d="M1120 1421v-1421h-213v1217h-153v-1217h-213v508h-27q-209 0 -336 127t-127 328q0 211 124 334.5t345 123.5h600z" />
<glyph unicode="&#xb7;" horiz-adv-x="458" d="M365 846v-268h-271v268h271z" />
<glyph unicode="&#x22c5;" horiz-adv-x="458" d="M365 846v-268h-271v268h271z" />
<glyph unicode="&#xb8;" horiz-adv-x="630" d="M549 -268q0 -86 -68.5 -135.5t-165.5 -49.5q-131 0 -233 82l35 74q72 -39 135 -47t98 12.5t35 57.5q0 53 -55.5 68.5t-104.5 -11.5l-78 47l84 170h134l-84 -123q55 18 114.5 16t106.5 -45.5t47 -115.5z" />
<glyph unicode="&#xb9;" horiz-adv-x="526" d="M375 1421v-880h-168v614h-137v109q66 2 114.5 42t55.5 115h135z" />
<glyph unicode="&#xba;" horiz-adv-x="759" d="M381 1456q133 0 225 -95t92 -236.5t-92 -235.5t-225 -94t-226.5 95t-93.5 234q0 141 93.5 236.5t226.5 95.5zM380.5 942q65.5 0 111 51t45.5 131t-45.5 132.5t-111 52.5t-110.5 -52.5t-45 -132.5t45 -131t110.5 -51z" />
<glyph unicode="&#xbb;" horiz-adv-x="864" d="M817 715v-203l-323 -281v215l204 168l-204 164v215zM59 993l324 -278v-203l-324 -281v215l205 168l-205 164v215z" />
<glyph unicode="&#xbc;" horiz-adv-x="1523" d="M207 541v614h-137v109q66 2 114.5 42t55.5 115h135v-880h-168zM1217 1421l-834 -1446h-172l833 1446h173zM1462 180h-94v-180h-158v180h-383v148l347 553h194v-553h94v-148zM1210 328v348l-217 -348h217z" />
<glyph unicode="&#xbd;" horiz-adv-x="1630" d="M207 541v614h-137v109q66 2 113.5 42t56.5 115h133v-880h-166zM1214 1421l-833 -1446h-172l835 1446h170zM1135 156h426v-156h-613v76q0 133 72 216t194 148q113 61 147 99.5t34 81.5q0 47 -31 77.5t-94 30.5q-66 0 -104 -43t-38 -113h-167q0 127 81.5 219.5t225.5 92.5 q141 0 218 -80t77 -187q0 -78 -39 -138t-85 -91t-141 -82q-155 -85 -163 -151z" />
<glyph unicode="&#xbe;" horiz-adv-x="1736" d="M367 524q-152 0 -234 84t-84 213h168q0 -66 40 -103.5t109.5 -37.5t110.5 35t41 90q0 113 -143 113h-56v145h33q141 0 142 100q0 49 -32 78t-89 29q-63 0 -97 -38t-34 -91h-168q0 121 81 202.5t218 81.5t210.5 -72.5t73.5 -168.5q0 -123 -112 -180q141 -43 141 -201 q0 -113 -84.5 -196t-234.5 -83zM1430 1421l-834 -1446h-172l833 1446h173zM1675 180h-94v-180h-156v180h-385v148l346 553h195v-553h94v-148zM1425 328v348l-219 -348h219z" />
<glyph unicode="&#xbf;" horiz-adv-x="1130" d="M453 1161v269h272v-269h-272zM795 438h266q0 -209 -133 -337t-359 -128q-221 0 -348 116t-127 302q0 117 61.5 200t178.5 159q129 88 129 208v48h250v-48q0 -143 -59.5 -226t-166.5 -157q-70 -49 -97.5 -90t-27.5 -94q0 -76 55.5 -122t151.5 -46q106 0 166 60.5t60 154.5 z" />
<glyph unicode="&#xc0;" horiz-adv-x="1366" d="M324 1829h303l190 -289h-199zM963 285h-568l-96 -285h-287l496 1421h342l496 -1421h-287zM877 537l-199 583l-199 -583h398z" />
<glyph unicode="&#xc1;" horiz-adv-x="1366" d="M1034 1829l-295 -289h-198l190 289h303zM963 285h-568l-96 -285h-287l496 1421h342l496 -1421h-287zM877 537l-199 583l-199 -583h398z" />
<glyph unicode="&#xc2;" horiz-adv-x="1366" d="M553 1540h-223l227 291h244l225 -291h-221l-127 170zM963 285h-568l-96 -285h-287l496 1421h342l496 -1421h-287zM877 537l-199 583l-199 -583h398z" />
<glyph unicode="&#xc3;" horiz-adv-x="1366" d="M1038 1806q-14 -102 -68.5 -172.5t-144.5 -70.5q-66 0 -160 37.5t-128 37.5q-72 0 -93 -84h-125q16 102 71.5 172t152.5 70q66 0 158 -38t124 -38q66 0 88 86h125zM963 285h-568l-96 -285h-287l496 1421h342l496 -1421h-287zM877 537l-199 583l-199 -583h398z" />
<glyph unicode="&#xc4;" horiz-adv-x="1366" d="M745 1790h252v-227h-252v227zM360 1790h252v-227h-252v227zM963 285h-568l-96 -285h-287l496 1421h342l496 -1421h-287zM877 537l-199 583l-199 -583h398z" />
<glyph unicode="&#xc5;" horiz-adv-x="1366" d="M678 1958q90 0 153.5 -63.5t63.5 -153.5t-63.5 -153.5t-153.5 -63.5t-153.5 63.5t-63.5 153.5t64.5 153.5t152.5 63.5zM963 285h-568l-96 -285h-287l496 1421h342l496 -1421h-287zM678 1640q41 0 69.5 30t28.5 71t-28.5 70.5t-69.5 29.5q-39 0 -67.5 -29.5t-28.5 -70.5 t28.5 -71t67.5 -30zM877 537l-199 583l-199 -583h398z" />
<glyph unicode="&#xc6;" horiz-adv-x="1976" d="M1915 252v-252h-1055v285h-465l-98 -285h-285l502 1421h1387v-252h-768v-303h651v-252h-651v-362h782zM860 537v632h-164l-219 -632h383z" />
<glyph unicode="&#xc7;" horiz-adv-x="1449" d="M1110 451h291q-68 -215 -234 -343t-393 -133l-67 -96q55 18 115.5 16.5t107.5 -47t47 -116.5q0 -86 -68.5 -135.5t-167.5 -49.5q-129 0 -231 82l35 74q70 -39 133 -46t99 12.5t36 56.5q0 53 -55.5 68.5t-104.5 -11.5l-80 47l76 154q-252 41 -416.5 246.5t-164.5 486.5 q0 311 198.5 526t489.5 215q240 0 409.5 -127t237.5 -346h-293q-53 100 -144.5 160.5t-209.5 60.5q-174 0 -296 -144t-122 -345q0 -203 122 -347.5t296 -144.5q117 0 209 62t145 164z" />
<glyph unicode="&#xc8;" horiz-adv-x="1245" d="M268 1829h303l191 -289h-199zM1184 252v-252h-1053v1421h1038v-252h-768v-303h656v-252h-656v-362h783z" />
<glyph unicode="&#xc9;" horiz-adv-x="1245" d="M1034 1829l-295 -289h-198l190 289h303zM1184 252v-252h-1053v1421h1038v-252h-768v-303h656v-252h-656v-362h783z" />
<glyph unicode="&#xca;" horiz-adv-x="1245" d="M553 1540h-223l227 291h244l225 -291h-221l-127 170zM1184 252v-252h-1053v1421h1038v-252h-768v-303h656v-252h-656v-362h783z" />
<glyph unicode="&#xcb;" horiz-adv-x="1245" d="M745 1790h252v-227h-252v227zM360 1790h252v-227h-252v227zM1184 252v-252h-1053v1421h1038v-252h-768v-303h656v-252h-656v-362h783z" />
<glyph unicode="&#xcc;" horiz-adv-x="542" d="M-94 1829h303l190 -289h-198zM408 1421v-1421h-271v1421h271z" />
<glyph unicode="&#xcd;" horiz-adv-x="542" d="M647 1829l-295 -289h-198l190 289h303zM408 1421v-1421h-271v1421h271z" />
<glyph unicode="&#xce;" horiz-adv-x="542" d="M147 1540h-223l228 291h243l226 -291h-222l-127 170zM408 1421v-1421h-271v1421h271z" />
<glyph unicode="&#xcf;" horiz-adv-x="542" d="M346 1790h252v-227h-252v227zM-39 1790h252v-227h-252v227zM408 1421v-1421h-271v1421h271z" />
<glyph unicode="&#xd0;" horiz-adv-x="1415" d="M1348 711q0 -326 -174.5 -518.5t-466.5 -192.5h-527v657h-149v252h149v512h527q297 0 469 -191t172 -519zM1077 713q0 88 -16.5 161.5t-54 143t-114.5 110.5t-185 41h-254v-260h333v-252h-333v-405h254q113 0 191.5 46t114.5 122t50 145.5t14 147.5z" />
<glyph unicode="&#xd1;" horiz-adv-x="1437" d="M864 1747q70 0 101 86h112q-12 -106 -72.5 -176t-144.5 -70q-59 0 -141 46t-121 46q-70 0 -100 -86h-111q10 109 69.5 177.5t145.5 68.5q59 0 141 -46t121 -46zM1307 1421v-1421h-326l-580 1012v-1012h-270v1421h326l577 -1011v1011h273z" />
<glyph unicode="&#xd2;" d="M360 1829h304l190 -289h-199zM764 1456q299 0 496.5 -214t197.5 -525q0 -313 -197.5 -527.5t-496.5 -214.5t-497.5 214t-198.5 528q0 311 198.5 525t497.5 214zM764 231q174 0 298 142.5t124 343.5q0 199 -124 341t-298 142q-176 0 -300 -142.5t-124 -340.5 q0 -201 124 -343.5t300 -142.5z" />
<glyph unicode="&#xd3;" d="M1147 1829l-295 -289h-199l191 289h303zM764 1456q299 0 496.5 -214t197.5 -525q0 -313 -197.5 -527.5t-496.5 -214.5t-497.5 214t-198.5 528q0 311 198.5 525t497.5 214zM764 231q174 0 298 142.5t124 343.5q0 199 -124 341t-298 142q-176 0 -300 -142.5t-124 -340.5 q0 -201 124 -343.5t300 -142.5z" />
<glyph unicode="&#xd4;" d="M639 1540h-223l227 291h244l225 -291h-221l-127 170zM764 1456q299 0 496.5 -214t197.5 -525q0 -313 -197.5 -527.5t-496.5 -214.5t-497.5 214t-198.5 528q0 311 198.5 525t497.5 214zM764 231q174 0 298 142.5t124 343.5q0 199 -124 341t-298 142q-176 0 -300 -142.5 t-124 -340.5q0 -201 124 -343.5t300 -142.5z" />
<glyph unicode="&#xd5;" d="M1143 1806q-14 -102 -68.5 -172.5t-144.5 -70.5q-66 0 -160 37.5t-129 37.5q-72 0 -92 -84h-125q16 102 71.5 172t151.5 70q66 0 158 -38t125 -38q66 0 88 86h125zM764 1456q299 0 496.5 -214t197.5 -525q0 -313 -197.5 -527.5t-496.5 -214.5t-497.5 214t-198.5 528 q0 311 198.5 525t497.5 214zM764 231q174 0 298 142.5t124 343.5q0 199 -124 341t-298 142q-176 0 -300 -142.5t-124 -340.5q0 -201 124 -343.5t300 -142.5z" />
<glyph unicode="&#xd6;" d="M838 1790h252v-227h-252v227zM453 1790h252v-227h-252v227zM764 1456q299 0 496.5 -214t197.5 -525q0 -313 -197.5 -527.5t-496.5 -214.5t-497.5 214t-198.5 528q0 311 198.5 525t497.5 214zM764 231q174 0 298 142.5t124 343.5q0 199 -124 341t-298 142 q-176 0 -300 -142.5t-124 -340.5q0 -201 124 -343.5t300 -142.5z" />
<glyph unicode="&#xd7;" horiz-adv-x="1052" d="M891 10l-365 365l-364 -365l-142 142l365 366l-365 363l142 141l364 -365l365 365l141 -141l-364 -363l364 -366z" />
<glyph unicode="&#xd8;" d="M1323 1163q135 -197 135 -446q0 -313 -197.5 -527.5t-496.5 -214.5q-260 0 -449 166l-141 -145l-106 106l147 150q-147 201 -147 465q0 311 198.5 525t497.5 214q270 0 463 -180l141 143l107 -104zM410 449l626 634q-117 117 -272 117q-176 0 -300 -142.5t-124 -340.5 q0 -147 70 -268zM1126 963l-620 -629q115 -102 258 -103q174 0 298 142.5t124 343.5q-1 137 -60 246z" />
<glyph unicode="&#xd9;" horiz-adv-x="1331" d="M279 1829h303l190 -289h-199zM1214 1421v-858q0 -276 -142 -432t-406.5 -156t-405.5 156t-141 432v858h270v-866q0 -317 276.5 -317t276.5 317v866h272z" />
<glyph unicode="&#xda;" horiz-adv-x="1331" d="M1067 1829l-295 -289h-199l191 289h303zM1214 1421v-858q0 -276 -142 -432t-406.5 -156t-405.5 156t-141 432v858h270v-866q0 -317 276.5 -317t276.5 317v866h272z" />
<glyph unicode="&#xdb;" horiz-adv-x="1331" d="M545 1540h-223l227 291h244l225 -291h-221l-127 170zM1214 1421v-858q0 -276 -142 -432t-406.5 -156t-405.5 156t-141 432v858h270v-866q0 -317 276.5 -317t276.5 317v866h272z" />
<glyph unicode="&#xdc;" horiz-adv-x="1331" d="M745 1790h252v-227h-252v227zM360 1790h252v-227h-252v227zM1214 1421v-858q0 -276 -142 -432t-406.5 -156t-405.5 156t-141 432v858h270v-866q0 -317 276.5 -317t276.5 317v866h272z" />
<glyph unicode="&#xdd;" horiz-adv-x="1218" d="M1004 1829l-287 -297h-197l191 297h293zM743 545v-545h-270v545l-477 876h305l305 -602h6l306 602h305z" />
<glyph unicode="&#xde;" horiz-adv-x="1249" d="M1198 778q0 -201 -128 -328.5t-337 -127.5h-332v-322h-270v1421h270v-184h328q221 0 345 -124t124 -335zM928 778q0 207 -201 207h-326v-414h326q201 0 201 207z" />
<glyph unicode="&#xdf;" horiz-adv-x="1208" d="M1147 440q0 -215 -126 -341t-335 -126q-104 0 -192 37v252q76 -31 176 -31q98 0 152.5 59.5t54.5 153.5q0 90 -60.5 144.5t-154.5 54.5h-168v252h118q72 0 123 47t51 139q0 86 -51 136.5t-141 50.5q-86 0 -142.5 -61.5t-56.5 -155.5v-1051h-272v1059q0 193 133 329 t336 136q205 0 335 -124t130 -298q0 -186 -135 -295q109 -49 167 -145.5t58 -221.5z" />
<glyph unicode="&#xe0;" horiz-adv-x="1271" d="M180 1481h301l191 -289h-199zM1145 1055v-1055h-258v113q-129 -135 -324 -136q-207 0 -354.5 159t-147.5 390q0 233 147.5 392t354.5 159q195 0 324 -135v113h258zM874 524q0 125 -78.5 214t-191 89t-191.5 -87t-79 -216q0 -125 79 -211t191.5 -86t191 87t78.5 210z" />
<glyph unicode="&#xe1;" horiz-adv-x="1271" d="M975 1481l-295 -289h-199l191 289h303zM1145 1055v-1055h-258v113q-129 -135 -324 -136q-207 0 -354.5 159t-147.5 390q0 233 147.5 392t354.5 159q195 0 324 -135v113h258zM874 524q0 125 -78.5 214t-191 89t-191.5 -87t-79 -216q0 -125 79 -211t191.5 -86t191 87 t78.5 210z" />
<glyph unicode="&#xe2;" horiz-adv-x="1271" d="M725 1192l-127 170l-125 -170h-223l227 291h242l227 -291h-221zM1145 1055v-1055h-258v113q-129 -135 -324 -136q-207 0 -354.5 159t-147.5 390q0 233 147.5 392t354.5 159q195 0 324 -135v113h258zM874 524q0 125 -78.5 214t-191 89t-191.5 -87t-79 -216q0 -125 79 -211 t191.5 -86t191 87t78.5 210z" />
<glyph unicode="&#xe3;" horiz-adv-x="1271" d="M952 1458q-14 -102 -69.5 -173t-145.5 -71q-63 0 -157.5 38t-128.5 38q-72 0 -93 -84h-127q16 102 72.5 173t153.5 71q66 0 157 -39t123 -39q66 0 88 86h127zM1145 1055v-1055h-258v113q-129 -135 -324 -136q-207 0 -354.5 159t-147.5 390q0 233 147.5 392t354.5 159 q195 0 324 -135v113h258zM874 524q0 125 -78.5 214t-191 89t-191.5 -87t-79 -216q0 -125 79 -211t191.5 -86t191 87t78.5 210z" />
<glyph unicode="&#xe4;" horiz-adv-x="1271" d="M647 1440h250v-228h-250v228zM262 1440h250v-228h-250v228zM1145 1055v-1055h-258v113q-129 -135 -324 -136q-207 0 -354.5 159t-147.5 390q0 233 147.5 392t354.5 159q195 0 324 -135v113h258zM874 524q0 125 -78.5 214t-191 89t-191.5 -87t-79 -216q0 -125 79 -211 t191.5 -86t191 87t78.5 210z" />
<glyph unicode="&#xe5;" horiz-adv-x="1271" d="M594 1614q90 0 153.5 -63.5t63.5 -153.5t-63.5 -153.5t-153.5 -63.5t-153.5 63.5t-63.5 153.5t63.5 153.5t153.5 63.5zM1145 1055v-1055h-258v113q-129 -135 -324 -136q-207 0 -354.5 159t-147.5 390q0 233 147.5 392t354.5 159q195 0 324 -135v113h258zM874 524 q0 125 -78.5 214t-191 89t-191.5 -87t-79 -216q0 -125 79 -211t191.5 -86t191 87t78.5 210zM594 1296q41 0 69.5 30t28.5 71q0 43 -28.5 72.5t-69.5 29.5t-68.5 -29.5t-27.5 -72.5q0 -41 28.5 -71t67.5 -30z" />
<glyph unicode="&#xe6;" horiz-adv-x="2021" d="M1954 422h-795q27 -94 98.5 -147.5t165.5 -53.5q147 0 226 115h286q-47 -164 -182 -262.5t-328 -98.5q-182 0 -311 125v-100h-225v100q-123 -123 -314 -123q-213 0 -363.5 161t-150.5 388q0 233 154 394t389 161q262 0 410 -204q70 94 178 149t233 55q246 0 404 -178 t125 -481zM1165 649h521q-29 86 -99.5 136.5t-163.5 50.5q-88 0 -156.5 -50.5t-101.5 -136.5zM874 526q0 121 -78.5 207t-191 86t-192.5 -86t-80 -207q0 -119 80 -203.5t192.5 -84.5t191 84.5t78.5 203.5z" />
<glyph unicode="&#xe7;" horiz-adv-x="1169" d="M621 -27l-50 -79q76 29 154 -7.5t78 -128.5q0 -76 -51.5 -120t-137.5 -44q-111 0 -196 87l37 63q57 -55 145 -55q37 0 61.5 17.5t24.5 47.5q0 27 -22.5 47.5t-59.5 20.5q-43 0 -72 -27l-73 49l69 136q-205 27 -336 181t-131 363q0 233 155 395t390 162q190 0 326.5 -101 t183.5 -280h-291q-68 119 -219 119q-113 0 -191.5 -87t-78.5 -208q0 -119 79 -203.5t191 -84.5q154 0 221 120h289q-45 -176 -176 -277.5t-319 -105.5z" />
<glyph unicode="&#xe8;" horiz-adv-x="1198" d="M221 1481h301l191 -289h-199zM1133 422h-797q27 -96 97.5 -152.5t166.5 -56.5q158 0 223 123h289q-47 -164 -182 -262.5t-328 -98.5q-223 0 -382 161t-159 390.5t159 392t382 162.5q246 0 403 -179t128 -480zM340 643h524q-25 92 -96.5 146.5t-167.5 54.5 q-92 0 -161.5 -54.5t-98.5 -146.5z" />
<glyph unicode="&#xe9;" horiz-adv-x="1198" d="M1004 1481l-295 -289h-199l190 289h304zM1133 422h-797q27 -96 97.5 -152.5t166.5 -56.5q158 0 223 123h289q-47 -164 -182 -262.5t-328 -98.5q-223 0 -382 161t-159 390.5t159 392t382 162.5q246 0 403 -179t128 -480zM340 643h524q-25 92 -96.5 146.5t-167.5 54.5 q-92 0 -161.5 -54.5t-98.5 -146.5z" />
<glyph unicode="&#xea;" horiz-adv-x="1198" d="M727 1192l-127 170l-125 -170h-223l227 291h242l227 -291h-221zM1133 422h-797q27 -96 97.5 -152.5t166.5 -56.5q158 0 223 123h289q-47 -164 -182 -262.5t-328 -98.5q-223 0 -382 161t-159 390.5t159 392t382 162.5q246 0 403 -179t128 -480zM340 643h524 q-25 92 -96.5 146.5t-167.5 54.5q-92 0 -161.5 -54.5t-98.5 -146.5z" />
<glyph unicode="&#xeb;" horiz-adv-x="1198" d="M668 1440h250v-228h-250v228zM283 1440h249v-228h-249v228zM1133 422h-797q27 -96 97.5 -152.5t166.5 -56.5q158 0 223 123h289q-47 -164 -182 -262.5t-328 -98.5q-223 0 -382 161t-159 390.5t159 392t382 162.5q246 0 403 -179t128 -480zM340 643h524 q-25 92 -96.5 146.5t-167.5 54.5q-92 0 -161.5 -54.5t-98.5 -146.5z" />
<glyph unicode="&#xec;" horiz-adv-x="530" d="M-94 1481h301l190 -289h-198zM399 1055v-1055h-270v1055h270z" />
<glyph unicode="&#xed;" horiz-adv-x="530" d="M635 1481l-295 -289h-199l191 289h303zM399 1055v-1055h-270v1055h270z" />
<glyph unicode="&#xee;" horiz-adv-x="530" d="M393 1192l-127 170l-125 -170h-223l227 291h242l227 -291h-221zM399 1055v-1055h-270v1055h270z" />
<glyph unicode="&#xef;" horiz-adv-x="530" d="M338 1440h250v-228h-250v228zM-47 1440h250v-228h-250v228zM399 1055v-1055h-270v1055h270z" />
<glyph unicode="&#xf0;" horiz-adv-x="1202" d="M1118 526q0 -242 -152.5 -399.5t-371.5 -157.5t-372.5 157t-153.5 386q0 166 78.5 295t190.5 190.5t228 61.5q92 0 172 -35q-78 113 -188 197l-152 -111l-112 70l155 112q-78 43 -141 64l201 151q61 -29 133 -73l127 94l112 -70l-135 -100q184 -154 282.5 -373t98.5 -459 zM852 512q0 131 -75 217t-183.5 86t-183 -86t-74.5 -217q0 -129 74.5 -214t183 -85t183.5 85t75 214z" />
<glyph unicode="&#xf1;" horiz-adv-x="1181" d="M969 1458q-14 -102 -69.5 -173t-145.5 -71q-63 0 -157.5 38t-129.5 38q-72 0 -92 -84h-127q16 102 72.5 173t152.5 71q66 0 157 -39t124 -39q66 0 88 86h127zM1065 616v-616h-270v616q0 31 -6.5 61t-25 66.5t-61.5 59t-104 22.5q-90 0 -147.5 -59t-57.5 -150v-616h-270 v1055h258v-103q109 129 272 129q186 0 299 -128t113 -337z" />
<glyph unicode="&#xf2;" horiz-adv-x="1185" d="M207 1481h301l190 -289h-198zM592 1081q221 0 376.5 -159.5t155.5 -395.5q0 -233 -155.5 -392t-376.5 -159t-376 158t-155 393.5t155 395t376 159.5zM591.5 223q108.5 0 184.5 85t76 216q0 135 -76 222.5t-184.5 87.5t-184 -87.5t-75.5 -222.5q0 -131 75.5 -216t184 -85z " />
<glyph unicode="&#xf3;" horiz-adv-x="1185" d="M995 1481l-295 -289h-198l190 289h303zM592 1081q221 0 376.5 -159.5t155.5 -395.5q0 -233 -155.5 -392t-376.5 -159t-376 158t-155 393.5t155 395t376 159.5zM591.5 223q108.5 0 184.5 85t76 216q0 135 -76 222.5t-184.5 87.5t-184 -87.5t-75.5 -222.5q0 -131 75.5 -216 t184 -85z" />
<glyph unicode="&#xf4;" horiz-adv-x="1185" d="M727 1192l-127 170l-125 -170h-223l227 291h242l227 -291h-221zM592 1081q221 0 376.5 -159.5t155.5 -395.5q0 -233 -155.5 -392t-376.5 -159t-376 158t-155 393.5t155 395t376 159.5zM591.5 223q108.5 0 184.5 85t76 216q0 135 -76 222.5t-184.5 87.5t-184 -87.5 t-75.5 -222.5q0 -131 75.5 -216t184 -85z" />
<glyph unicode="&#xf5;" horiz-adv-x="1185" d="M952 1458q-14 -102 -69.5 -173t-145.5 -71q-63 0 -157.5 38t-128.5 38q-72 0 -93 -84h-127q16 102 72.5 173t153.5 71q66 0 157 -39t123 -39q66 0 88 86h127zM592 1081q221 0 376.5 -159.5t155.5 -395.5q0 -233 -155.5 -392t-376.5 -159t-376 158t-155 393.5t155 395 t376 159.5zM591.5 223q108.5 0 184.5 85t76 216q0 135 -76 222.5t-184.5 87.5t-184 -87.5t-75.5 -222.5q0 -131 75.5 -216t184 -85z" />
<glyph unicode="&#xf6;" horiz-adv-x="1185" d="M662 1440h249v-228h-249v228zM276 1440h250v-228h-250v228zM592 1081q221 0 376.5 -159.5t155.5 -395.5q0 -233 -155.5 -392t-376.5 -159t-376 158t-155 393.5t155 395t376 159.5zM591.5 223q108.5 0 184.5 85t76 216q0 135 -76 222.5t-184.5 87.5t-184 -87.5 t-75.5 -222.5q0 -131 75.5 -216t184 -85z" />
<glyph unicode="&#xf8;" horiz-adv-x="1185" d="M1124 524q0 -227 -155.5 -389t-374.5 -162q-184 0 -330 119l-94 -94l-102 102l96 99q-102 150 -103 325q0 231 156 394t377 163q180 0 326 -118l94 94l104 -101l-98 -100q104 -148 104 -332zM356 393l379 383q-68 47 -141 47q-111 0 -188.5 -87t-77.5 -212 q-1 -70 28 -131zM858 524q0 76 -31 138l-378 -383q68 -47 145 -48q109 0 186.5 86t77.5 207z" />
<glyph unicode="&#xf9;" horiz-adv-x="1179" d="M213 1481h301l191 -289h-199zM1057 1055v-1055h-258v96q-104 -121 -269 -121q-186 0 -300.5 128t-114.5 335v617h270v-617q0 -29 7 -58.5t24.5 -66.5t60.5 -59.5t105 -22.5q90 0 147 59.5t57 147.5v617h271z" />
<glyph unicode="&#xfa;" horiz-adv-x="1179" d="M995 1481l-295 -289h-198l190 289h303zM1057 1055v-1055h-258v96q-104 -121 -269 -121q-186 0 -300.5 128t-114.5 335v617h270v-617q0 -29 7 -58.5t24.5 -66.5t60.5 -59.5t105 -22.5q90 0 147 59.5t57 147.5v617h271z" />
<glyph unicode="&#xfb;" horiz-adv-x="1179" d="M713 1192l-127 170l-125 -170h-223l227 291h242l227 -291h-221zM1057 1055v-1055h-258v96q-104 -121 -269 -121q-186 0 -300.5 128t-114.5 335v617h270v-617q0 -29 7 -58.5t24.5 -66.5t60.5 -59.5t105 -22.5q90 0 147 59.5t57 147.5v617h271z" />
<glyph unicode="&#xfc;" horiz-adv-x="1179" d="M659 1440h250v-228h-250v228zM274 1440h250v-228h-250v228zM1057 1055v-1055h-258v96q-104 -121 -269 -121q-186 0 -300.5 128t-114.5 335v617h270v-617q0 -29 7 -58.5t24.5 -66.5t60.5 -59.5t105 -22.5q90 0 147 59.5t57 147.5v617h271z" />
<glyph unicode="&#xfd;" horiz-adv-x="1173" d="M956 1528l-284 -295h-201l191 295h294zM1059 1055v-1098q0 -211 -131 -342t-340 -131q-174 0 -303 103.5t-156 265.5h281q33 -109 178 -109q102 0 151 60.5t49 144.5v112q-102 -86 -243 -86q-195 0 -312.5 127t-117.5 336v617h270v-617q0 -29 7 -57.5t24.5 -64t61.5 -57 t106 -21.5q90 0 147 56t57 144v617h271z" />
<glyph unicode="&#xfe;" horiz-adv-x="1277" d="M1217 530q0 -233 -146.5 -393t-355.5 -160q-184 0 -309 125v-571h-273v1890h273v-465q127 123 309 123q209 0 355.5 -159t146.5 -390zM946 530q0 125 -79 211t-191.5 86t-191 -87t-78.5 -210q0 -125 78.5 -213t191 -88t191.5 86t79 215z" />
<glyph unicode="&#xff;" horiz-adv-x="1171" d="M641 1440h250v-228h-250v228zM256 1440h250v-228h-250v228zM1057 1055v-1098q0 -213 -129 -343t-340 -130q-174 0 -303 103.5t-156 265.5h281q25 -117 178 -117q102 0 150 59.5t48 143.5v122q-102 -86 -241 -86q-193 0 -311.5 128t-118.5 335v617h270v-617q0 -29 7 -58.5 t24.5 -66.5t60.5 -59.5t105 -22.5q90 0 147 58.5t57 148.5v617h271z" />
<glyph unicode="&#x152;" horiz-adv-x="2299" d="M1454 252h784v-252h-1054v139q-170 -164 -420 -164q-301 0 -498.5 214t-197.5 528q0 311 197.5 525t498.5 214q250 0 420 -164v129h1038v-252h-768v-303h655v-252h-655v-362zM1184 692v47q-8 190 -130 325.5t-290 135.5q-176 0 -301 -142.5t-125 -341t125 -342 t301 -143.5q168 0 290 135.5t130 325.5z" />
<glyph unicode="&#x153;" horiz-adv-x="1978" d="M1911 422h-795q27 -94 98.5 -147.5t163.5 -53.5q147 0 228 115h284q-47 -164 -181 -262.5t-327 -98.5q-121 0 -227 51.5t-176 139.5q-61 -88 -163.5 -139.5t-223.5 -51.5q-219 0 -375 161t-156 390.5t156 392t375 162.5q121 0 223.5 -52t163.5 -142q70 90 176.5 142 t226.5 52q246 0 404 -178t125 -481zM1122 649h518q-27 86 -98.5 136.5t-163.5 50.5q-86 0 -155.5 -50.5t-100.5 -136.5zM854 526.5q0 120.5 -77 206.5t-185 86q-106 0 -183 -86t-77 -207q0 -119 75.5 -203.5t184 -84.5t185.5 84t77 204.5z" />
<glyph unicode="&#x178;" horiz-adv-x="1218" d="M690 1790h252v-227h-252v227zM305 1790h252v-227h-252v227zM745 545v-545h-272v545l-477 876h305l307 -608l310 608h305z" />
<glyph unicode="&#x2c6;" horiz-adv-x="854" d="M549 1192l-127 170l-125 -170h-223l227 291h242l227 -291h-221z" />
<glyph unicode="&#x2dc;" horiz-adv-x="854" d="M784 1458q-14 -102 -69.5 -173t-145.5 -71q-63 0 -157.5 38t-128.5 38q-72 0 -93 -84h-127q16 102 73 173t153 71q66 0 157 -39t123 -39q66 0 88 86h127z" />
<glyph unicode="&#x2000;" horiz-adv-x="978" />
<glyph unicode="&#x2001;" horiz-adv-x="1957" />
<glyph unicode="&#x2002;" horiz-adv-x="978" />
<glyph unicode="&#x2003;" horiz-adv-x="1957" />
<glyph unicode="&#x2004;" horiz-adv-x="651" />
<glyph unicode="&#x2005;" horiz-adv-x="489" />
<glyph unicode="&#x2006;" horiz-adv-x="325" />
<glyph unicode="&#x2007;" horiz-adv-x="325" />
<glyph unicode="&#x2008;" horiz-adv-x="243" />
<glyph unicode="&#x2009;" horiz-adv-x="391" />
<glyph unicode="&#x200a;" horiz-adv-x="108" />
<glyph unicode="&#x2010;" horiz-adv-x="677" d="M61 442v252h555v-252h-555z" />
<glyph unicode="&#x2011;" horiz-adv-x="677" d="M61 442v252h555v-252h-555z" />
<glyph unicode="&#x2012;" horiz-adv-x="677" d="M61 442v252h555v-252h-555z" />
<glyph unicode="&#x2013;" horiz-adv-x="1241" d="M63 442v252h1115v-252h-1115z" />
<glyph unicode="&#x2014;" horiz-adv-x="1947" d="M63 442v252h1821v-252h-1821z" />
<glyph unicode="&#x2018;" horiz-adv-x="415" d="M346 1120v-258h-276v277q0 127 68.5 199.5t180.5 84.5v-114q-119 -27 -118 -164v-25h145z" />
<glyph unicode="&#x2019;" horiz-adv-x="415" d="M346 1421v-276q0 -125 -68.5 -199t-181.5 -84v115q119 25 119 164v22h-145v258h276z" />
<glyph unicode="&#x201a;" horiz-adv-x="409" d="M346 260v-276q0 -125 -68.5 -199t-181.5 -84v115q119 25 119 164v22h-145v258h276z" />
<glyph unicode="&#x201c;" horiz-adv-x="872" d="M803 1120v-258h-277v277q0 127 69 199.5t181 84.5v-114q-119 -27 -119 -164v-25h146zM201 1120h145v-258h-276v277q0 127 68.5 199.5t180.5 84.5v-114q-119 -27 -118 -164v-25z" />
<glyph unicode="&#x201d;" horiz-adv-x="872" d="M803 1421v-276q0 -125 -68.5 -199t-181.5 -84v115q119 25 119 164v22h-146v258h277zM70 1421h276v-276q0 -125 -68.5 -199t-181.5 -84v115q119 25 119 164v22h-145v258z" />
<glyph unicode="&#x201e;" horiz-adv-x="866" d="M803 260v-276q0 -125 -68.5 -199t-181.5 -84v115q119 25 119 164v22h-146v258h277zM70 260h276v-276q0 -125 -68.5 -199t-181.5 -84v115q119 25 119 164v22h-145v258z" />
<glyph unicode="&#x2022;" horiz-adv-x="641" d="M322 528q-92 0 -156 63.5t-64 156.5q0 90 63.5 153.5t156.5 63.5q88 0 152.5 -64.5t64.5 -152.5q0 -92 -63.5 -156t-153.5 -64z" />
<glyph unicode="&#x2026;" horiz-adv-x="1769" d="M1675 289v-289h-291v289h291zM1030 289v-289h-291v289h291zM385 289v-289h-291v289h291z" />
<glyph unicode="&#x202f;" horiz-adv-x="391" />
<glyph unicode="&#x2039;" horiz-adv-x="430" d="M47 715l324 278v-215l-205 -164l205 -168v-215l-324 281v203z" />
<glyph unicode="&#x203a;" horiz-adv-x="430" d="M385 715v-203l-326 -281v215l205 168l-205 164v215z" />
<glyph unicode="&#x205f;" horiz-adv-x="489" />
<glyph unicode="&#x20ac;" horiz-adv-x="1343" d="M1323 350q-70 -166 -207 -258t-330 -92q-203 0 -360.5 120t-220.5 314h-154v154h121q-4 45 -4 71q0 8 1 24.5t1 27.5h-119v151h148q61 201 228 327t382 126q297 0 475 -203l-115 -184q-119 174 -352 174q-123 0 -221 -64.5t-147 -175.5h681l-94 -151h-628q-2 -16 -2 -52 q0 -27 4 -71h551l-95 -154h-411q49 -102 136 -161.5t195 -59.5q184 0 283 137h254z" />
<glyph unicode="&#x2122;" horiz-adv-x="1884" d="M1782 1421v-893h-195v541l-178 -541h-213l-176 539v-539h-195v893h260l218 -649l219 649h260zM72 1421h649v-190h-223v-703h-203v703h-223v190z" />
<glyph unicode="&#xe000;" horiz-adv-x="1055" d="M0 1055h1055v-1055h-1055v1055z" />
<glyph unicode="&#xfb01;" horiz-adv-x="1607" d="M1477 1421v-252h-271v252h271zM766 870v95q0 80 -50 137t-144.5 57t-143.5 -57.5t-49 -136.5v-269h645v-260h-645v-436h-270v958q0 201 126.5 332t335.5 131t337 -131t128 -332v-88h-270zM1477 1055v-1055h-271v1055h271z" />
<glyph unicode="&#xfb02;" horiz-adv-x="1613" d="M1487 1524v-1524h-270v1524h270zM766 870v95q0 80 -50 137t-144.5 57t-143.5 -57.5t-49 -136.5v-269h645v-260h-645v-436h-270v958q0 201 126.5 332t335.5 131t337 -131t128 -332v-88h-270z" />
<glyph unicode="&#xfb03;" horiz-adv-x="2725" d="M2594 1421v-252h-270v252h270zM2594 1055v-1055h-270v1055h270zM1864 870v103q0 80 -49 136t-143.5 56t-144.5 -56t-50 -136v-277h647v-254h-647v-442h-270v958q0 201 128 332t336.5 131t335.5 -131t127 -332v-88h-270zM766 870v103q0 80 -49 136t-143.5 56t-144.5 -56 t-50 -136v-277h647v-254h-647v-442h-270v958q0 201 128 332t336.5 131t335.5 -131t127 -332v-88h-270z" />
<glyph unicode="&#xfb04;" horiz-adv-x="2721" d="M2594 1524v-1524h-270v1524h270zM1864 870v103q0 80 -49 136t-143.5 56t-144.5 -56t-50 -136v-277h647v-254h-647v-442h-270v958q0 201 128 332t336.5 131t335.5 -131t127 -332v-88h-270zM766 870v103q0 80 -49 136t-143.5 56t-144.5 -56t-50 -136v-277h647v-254h-647 v-442h-270v958q0 201 128 332t336.5 131t335.5 -131t127 -332v-88h-270z" />
</font>
</defs>
</svg>
